<svg width="843" height="150" viewBox="0 0 843 150" fill="none" xmlns="http://www.w3.org/2000/svg">
<path d="M0 150V0C16.5413 24 95.311 80.4 133.074 54C162.579 37.6 235.679 9.72 292.039 29.4C362.49 54 417.285 81 472.682 64.2C517 50.76 595.519 85.8 637.067 109.2C662.801 123.694 656.336 118.8 698.486 126C747.874 134.436 785.408 134.726 799.646 138C815.301 141.6 837.352 144 843 150H0Z" fill="#0096A4"/>
<path d="M0 150V25C16.3058 45 93.9543 92 131.179 70C160.264 56.3333 232.324 33.1 287.882 49.5C357.33 70 411.345 92.5 465.954 78.5C509.64 67.3 587.042 96.5 627.999 116C653.366 128.078 646.993 124 688.543 130C737.228 137.03 774.228 137.272 788.263 140C803.696 143 825.432 145 831 150H0Z" fill="#02A1B0"/>
</svg>
