<svg width="11" height="10" viewBox="0 0 11 10" fill="none" xmlns="http://www.w3.org/2000/svg">
<path d="M10.7607 3.64842C10.8442 3.58577 10.9695 3.64842 10.9695 3.75283V8.01279C10.9695 8.57661 10.5101 9.01514 9.96716 9.01514H1.28018C0.716357 9.01514 0.277832 8.57661 0.277832 8.01279V3.75283C0.277832 3.64842 0.382243 3.58577 0.465772 3.64842C0.946061 4.0243 1.55164 4.48371 3.68162 6.02899C4.12015 6.34222 4.87191 7.03133 5.62367 7.03133C6.35454 7.03133 7.12718 6.34222 7.54482 6.02899C9.67481 4.48371 10.2804 4.0243 10.7607 3.64842ZM5.62367 6.34222C5.12249 6.3631 4.43338 5.73664 4.07839 5.48605C1.30106 3.48136 1.09224 3.29342 0.465772 2.79225C0.340479 2.70872 0.277832 2.56255 0.277832 2.39549V1.99873C0.277832 1.45579 0.716357 0.996386 1.28018 0.996386H9.96716C10.5101 0.996386 10.9695 1.45579 10.9695 1.99873V2.39549C10.9695 2.56255 10.886 2.70872 10.7607 2.79225C10.1342 3.29342 9.92539 3.48136 7.14806 5.48605C6.79307 5.73664 6.10396 6.3631 5.62367 6.34222Z" fill="white"/>
</svg>
